<?xml version="1.0" encoding="utf-8"?>
<!-- Generator: Adobe Illustrator 26.3.1, SVG Export Plug-In . SVG Version: 6.00 Build 0)  -->
<svg version="1.1" id="Layer_1" xmlns="http://www.w3.org/2000/svg" xmlns:xlink="http://www.w3.org/1999/xlink" x="0px" y="0px"
	 width="200px" height="200px" viewBox="0 0 200 200" style="enable-background:new 0 0 200 200;" xml:space="preserve">
<style type="text/css">
	.st0{opacity:0.11;fill:url(#SVGID_1_);}
	.st1{opacity:0.15;fill:url(#SVGID_00000036947609813759490300000000381849474607068071_);}
	.st2{fill:url(#SVGID_00000008144103252603792700000017152644014475199128_);}
	.st3{fill:url(#SVGID_00000145020316821447327380000005310949856724196788_);}
	.st4{fill:url(#SVGID_00000038402088967410959220000010953359101077204358_);}
	.st5{fill:url(#SVGID_00000114755952155966997440000017005386707051218082_);}
	.st6{opacity:0.5;fill:url(#SVGID_00000062192986072442451410000009447393611072086683_);}
	.st7{fill:url(#SVGID_00000166640081697817994320000000321962612199518361_);}
	.st8{opacity:0.5;fill:url(#SVGID_00000118386621016198293400000000414439819824677007_);}
	.st9{fill:url(#SVGID_00000160162906780198060790000012650409043052115596_);}
	.st10{fill:url(#SVGID_00000082337790009703579570000006882786592375291265_);}
	.st11{fill:url(#SVGID_00000104699372198999035610000012869927689211599257_);}
	.st12{filter:url(#Adobe_OpacityMaskFilter);}
	.st13{filter:url(#Adobe_OpacityMaskFilter_00000054224381039920394770000005430925900440709310_);}
	
		.st14{mask:url(#SVGID_00000081605737323474286150000006907258470976051364_);fill:url(#SVGID_00000142167115161476608420000013557676261907801771_);}
	.st15{opacity:0.53;fill:url(#SVGID_00000176010021828502564720000000556866638519760288_);}
	.st16{fill:url(#SVGID_00000031197201645780815420000006448045544615870366_);}
	.st17{fill:url(#SVGID_00000093862258449656171160000005812465656953745297_);}
	.st18{fill:url(#SVGID_00000065059452065866683860000012410671625333861552_);}
	.st19{fill:url(#SVGID_00000106859047389265528150000014272514691119861908_);}
	.st20{fill:url(#SVGID_00000028282782724971573420000007042125015039397817_);}
	.st21{opacity:0.78;fill:#FFFFFF;}
	.st22{fill:url(#SVGID_00000177454049759210120960000015201459314519176366_);}
	.st23{fill:url(#SVGID_00000046302836063076271590000013316864062178925998_);}
	.st24{fill:#FFFFFF;}
	.st25{fill:url(#SVGID_00000130631656014096273240000004860177543097769886_);}
	.st26{fill:url(#SVGID_00000029025276629146651730000005137891920184406403_);}
	.st27{fill:url(#SVGID_00000053507630544528242270000002687517711214576571_);}
	.st28{fill:url(#SVGID_00000173119743940505447170000011939658325958661786_);}
	.st29{fill:url(#SVGID_00000174559608387225231370000009318399039848799133_);}
	.st30{fill:url(#SVGID_00000155838939358617215780000006161737887301132214_);}
	.st31{fill:url(#SVGID_00000174561478461485419290000005052267849698470588_);}
	.st32{fill:url(#SVGID_00000111877380028508508960000012904190408974588852_);}
	.st33{fill:url(#SVGID_00000021834392532018049530000004941329571213200051_);}
	.st34{fill:url(#SVGID_00000168089386253411461490000003025757112110790529_);}
	.st35{fill:url(#SVGID_00000182505831224346110460000006272745260155494314_);}
	.st36{fill:url(#SVGID_00000150060422711425989540000010030102973540921507_);}
	.st37{fill:url(#SVGID_00000088832007106175709400000010653389999397234866_);}
	.st38{fill:url(#SVGID_00000084512655119851277030000009089936226228836799_);}
	.st39{fill:url(#SVGID_00000163066303995408079490000003262692379820052618_);}
	.st40{fill:url(#SVGID_00000037690960061675183230000009138615513445978274_);}
	.st41{fill:url(#SVGID_00000029019029582744586740000015506308269039886523_);}
	.st42{fill:url(#SVGID_00000035521618162300944120000010944258172037804675_);}
	.st43{fill:url(#SVGID_00000149375116229802741260000006863593758077621951_);}
	.st44{fill:url(#SVGID_00000183957291445262572010000012368059516373976448_);}
	.st45{fill:url(#SVGID_00000088106396008253019000000015439339099580484994_);}
	.st46{fill:url(#SVGID_00000054984350369065591090000005361278867233411462_);}
	.st47{fill:url(#SVGID_00000025438642808126201800000003750464484781485459_);}
	.st48{fill:url(#SVGID_00000111883367463662544350000017526147569306171543_);}
	.st49{fill:url(#SVGID_00000144302585422505309950000009588186959075585668_);}
	.st50{fill:url(#SVGID_00000120545943494438471440000014368332430665224859_);}
	.st51{fill:url(#SVGID_00000049193258393417840360000014538592620965447045_);}
	.st52{fill:url(#SVGID_00000132050511321767544660000011718142337475729825_);}
	.st53{fill:url(#SVGID_00000119110171232202308190000016009981254132629145_);}
	.st54{fill:url(#SVGID_00000085932583732348401400000017619784726838975931_);}
	.st55{fill:url(#SVGID_00000119092472093034440070000017087599958869045413_);}
	.st56{fill:url(#SVGID_00000060009253595080089420000007871872687924941457_);}
	.st57{fill:url(#SVGID_00000022561314573426477760000015975881814729820313_);}
	.st58{fill:url(#SVGID_00000139977335079727709410000004625016699510649509_);}
	.st59{fill:url(#SVGID_00000054231995060087600300000000989489184624041640_);}
	.st60{fill:url(#SVGID_00000062893863233262833430000013067654506612104607_);}
	.st61{fill:url(#SVGID_00000155849193357180831070000003307390841437434003_);}
	.st62{fill:url(#SVGID_00000030452274403878057990000015764779749909654963_);}
	.st63{fill:url(#SVGID_00000112622422895398833810000001471568119982724230_);}
	.st64{fill:url(#SVGID_00000059998430233230068080000016133693843341757852_);}
	.st65{fill:url(#SVGID_00000151523551454629752600000011211476572816565635_);}
	.st66{fill:url(#SVGID_00000019656288450293313250000013615643588556580240_);}
	.st67{fill:url(#SVGID_00000085232766287329907200000014171858708826513322_);}
	.st68{fill:#E992EC;}
</style>
<g>
	<g>
		<linearGradient id="SVGID_1_" gradientUnits="userSpaceOnUse" x1="15.6599" y1="78.4414" x2="189.1455" y2="116.2934">
			<stop  offset="0" style="stop-color:#B37CFF"/>
			<stop  offset="1" style="stop-color:#F895E7"/>
		</linearGradient>
		<path class="st0" d="M185.5,122c0,50.2-30.8,67.9-81.3,67.9s-91.6-40.7-91.6-90.9c0-50.2,65.7-89,116.3-89S185.5,71.8,185.5,122z"
			/>
		
			<linearGradient id="SVGID_00000148620016498870863810000003252793501043891603_" gradientUnits="userSpaceOnUse" x1="17.258" y1="81.6319" x2="179.4655" y2="117.0231">
			<stop  offset="0" style="stop-color:#B37CFF"/>
			<stop  offset="1" style="stop-color:#F895E7"/>
		</linearGradient>
		<path style="opacity:0.15;fill:url(#SVGID_00000148620016498870863810000003252793501043891603_);" d="M180.7,102.3
			c0,47.4-40.2,85.9-89.8,85.9s-83-9.7-83-57.2c0-47.4,62.3-120.6,135-116.7C192.5,17,180.7,54.8,180.7,102.3z"/>
	</g>
	<g>
		<g>
			
				<linearGradient id="SVGID_00000063592808969709023820000002590852335840419516_" gradientUnits="userSpaceOnUse" x1="213.8266" y1="85.864" x2="175.3526" y2="116.5231">
				<stop  offset="0" style="stop-color:#FDF53F"/>
				<stop  offset="1" style="stop-color:#D93C65"/>
			</linearGradient>
			<path style="fill:url(#SVGID_00000063592808969709023820000002590852335840419516_);" d="M175.9,116.8c0.5,0.4,14.3-0.6,20.1,0.6
				c0,0,4.5-19.6-8.4-20.4c-12.9-0.8-17.4,7.2-17.4,7.2L175.9,116.8z"/>
			
				<linearGradient id="SVGID_00000081644181146294880460000000281282752943007630_" gradientUnits="userSpaceOnUse" x1="199.429" y1="86.357" x2="114.0644" y2="195.367">
				<stop  offset="0" style="stop-color:#FDF53F"/>
				<stop  offset="1" style="stop-color:#D93C65"/>
			</linearGradient>
			<path style="fill:url(#SVGID_00000081644181146294880460000000281282752943007630_);" d="M162.3,96l25.4,0.9
				c0,0-9.2,0.1-8.2,11.8c1,11.7,6.2,45.8-7,45.9c-13.2,0-13.4-6-13.4-6L162.3,96z"/>
			
				<linearGradient id="SVGID_00000059270605305359964370000016252244344330385562_" gradientUnits="userSpaceOnUse" x1="202.861" y1="89.2781" x2="154.9688" y2="127.7522">
				<stop  offset="0" style="stop-color:#FDF53F"/>
				<stop  offset="1" style="stop-color:#D93C65"/>
			</linearGradient>
			<path style="fill:url(#SVGID_00000059270605305359964370000016252244344330385562_);" d="M150.4,90.5l9.8-2.3
				c0,0,6.6-0.6,7.4,5.2c0.9,5.8,0.6,40.4,0.4,47.5c-0.3,7.1,0.4,12.6,4.4,13.7l-29.2,0.5L150.4,90.5z"/>
			<g>
				
					<linearGradient id="SVGID_00000075120712888377354150000004450263418164640930_" gradientUnits="userSpaceOnUse" x1="4303.6064" y1="496.1978" x2="4320.8457" y2="496.1978" gradientTransform="matrix(-0.9878 -0.1555 -0.1555 0.9878 4496.0703 310.9408)">
					<stop  offset="0" style="stop-color:#CB236D"/>
					<stop  offset="1" style="stop-color:#4C246D"/>
				</linearGradient>
				<path style="fill:url(#SVGID_00000075120712888377354150000004450263418164640930_);" d="M146.8,155.8c0,0,2.3-31.9,18.4-51.3
					c0.2-0.3,0.6-0.2,0.7,0.1C167.7,109.5,177.6,141.2,146.8,155.8z"/>
				
					<linearGradient id="SVGID_00000174583607084913212520000000653467346631293858_" gradientUnits="userSpaceOnUse" x1="147.4667" y1="133.9474" x2="164.5759" y2="133.9474">
					<stop  offset="0" style="stop-color:#B37CFF"/>
					<stop  offset="0.7717" style="stop-color:#E88FEC"/>
					<stop  offset="1" style="stop-color:#F895E7"/>
				</linearGradient>
				<path style="opacity:0.5;fill:url(#SVGID_00000174583607084913212520000000653467346631293858_);" d="M164.6,113.7
					c-0.1,1.9-0.4,3.7-0.7,5.5c-0.3,1.8-0.7,3.6-1.1,5.5c-0.9,3.6-2,7.2-3.4,10.6c-0.7,1.7-1.4,3.4-2.2,5.1
					c-0.4,0.8-0.8,1.7-1.3,2.5c-0.5,0.8-0.9,1.6-1.4,2.4c-1.9,3.2-4.1,6.2-6.6,8.9c-0.1,0.1-0.2,0.1-0.3,0c-0.1-0.1-0.1-0.2,0-0.3
					l0,0c2.3-2.9,4.3-6,6-9.2c0.5-0.8,0.9-1.6,1.3-2.4c0.4-0.8,0.8-1.6,1.2-2.5c0.2-0.4,0.4-0.8,0.6-1.3l0.6-1.3
					c0.2-0.4,0.4-0.8,0.5-1.3c0.2-0.4,0.3-0.8,0.5-1.3c0.3-0.9,0.7-1.7,1-2.6c0.3-0.9,0.6-1.7,0.9-2.6c0.6-1.7,1.1-3.5,1.6-5.3
					c0.5-1.8,1-3.6,1.4-5.3c0.4-1.8,0.8-3.6,1.1-5.4l0,0c0-0.1,0.1-0.2,0.2-0.2C164.5,113.5,164.6,113.6,164.6,113.7z"/>
			</g>
			<g>
				
					<linearGradient id="SVGID_00000057842009155237989480000015286030441476633224_" gradientUnits="userSpaceOnUse" x1="4288.6792" y1="501.809" x2="4316.2778" y2="501.809" gradientTransform="matrix(-0.9878 -0.1555 -0.1555 0.9878 4496.0703 310.9408)">
					<stop  offset="0" style="stop-color:#53D8FF"/>
					<stop  offset="0.2057" style="stop-color:#4DB9FD"/>
					<stop  offset="1" style="stop-color:#3840F7"/>
				</linearGradient>
				<path style="fill:url(#SVGID_00000057842009155237989480000015286030441476633224_);" d="M151.6,153.2c0,0,14.2-29.4,32.2-31.4
					c0.3,0,0.6,0.2,0.5,0.6C183.9,126.2,180.2,145.7,151.6,153.2z"/>
				
					<linearGradient id="SVGID_00000055707302916378643030000002060139929697191297_" gradientUnits="userSpaceOnUse" x1="152.0269" y1="139.2728" x2="180.4469" y2="139.2728">
					<stop  offset="0" style="stop-color:#B37CFF"/>
					<stop  offset="0.7717" style="stop-color:#E88FEC"/>
					<stop  offset="1" style="stop-color:#F895E7"/>
				</linearGradient>
				<path style="opacity:0.5;fill:url(#SVGID_00000055707302916378643030000002060139929697191297_);" d="M180.4,126.6
					c-1,1.2-2,2.4-3.1,3.6c-0.5,0.6-1.1,1.2-1.6,1.8c-0.5,0.6-1.1,1.2-1.6,1.7c-2.2,2.3-4.5,4.5-6.8,6.7c-1.2,1.1-2.4,2.1-3.6,3.2
					l-1.8,1.5c-0.3,0.3-0.6,0.5-0.9,0.8l-0.9,0.7c-2.5,2-5.1,3.8-7.7,5.6c-0.1,0.1-0.2,0-0.3-0.1c-0.1-0.1,0-0.2,0.1-0.3l0,0
					l1.9-1.4l1-0.7c0.3-0.2,0.6-0.5,0.9-0.7l1.9-1.4c0.6-0.5,1.2-1,1.9-1.5l0.9-0.7l0.9-0.8l1.8-1.5c1.2-1,2.4-2.1,3.5-3.2
					c1.2-1.1,2.3-2.2,3.5-3.3l1.7-1.7l1.7-1.7c0.6-0.6,1.1-1.1,1.6-1.7c0.5-0.6,1.1-1.2,1.6-1.7c1.1-1.2,2.1-2.3,3.1-3.6l0,0
					c0.1-0.1,0.2-0.1,0.3,0C180.5,126.4,180.5,126.6,180.4,126.6z"/>
			</g>
			
				<linearGradient id="SVGID_00000095304762742417515370000007275474174841997980_" gradientUnits="userSpaceOnUse" x1="182.9361" y1="69.0032" x2="79.537" y2="200.8572">
				<stop  offset="0" style="stop-color:#FDF53F"/>
				<stop  offset="1" style="stop-color:#D93C65"/>
			</linearGradient>
			<path style="fill:url(#SVGID_00000095304762742417515370000007275474174841997980_);" d="M130.5,91c0,0,17.9,1,29.7-2.8
				c0,0-7.9-0.5-7.9,17.7c0,14,2.1,40.6,0.3,45.6c-1.8,5.1-8.6,11.8-18.2,6C124.7,151.7,130.5,91,130.5,91z"/>
			
				<linearGradient id="SVGID_00000018951728427758233060000002376434265698231707_" gradientUnits="userSpaceOnUse" x1="146.7314" y1="83.5046" x2="111.0627" y2="9.3617">
				<stop  offset="0" style="stop-color:#FDF53F"/>
				<stop  offset="1" style="stop-color:#D93C65"/>
			</linearGradient>
			<path style="fill:url(#SVGID_00000018951728427758233060000002376434265698231707_);" d="M125.7,63.6c0,0,19.7,2.1,22.2-1.2
				c0,0-2-6-8-5.6C134,57.2,125.7,63.6,125.7,63.6z"/>
			
				<linearGradient id="SVGID_00000005268949615114146520000015642833514169585033_" gradientUnits="userSpaceOnUse" x1="132.4427" y1="73.5437" x2="30.1752" y2="204.4147">
				<stop  offset="0" style="stop-color:#FDF53F"/>
				<stop  offset="1" style="stop-color:#D93C65"/>
			</linearGradient>
			<path style="fill:url(#SVGID_00000005268949615114146520000015642833514169585033_);" d="M61.7,70.4c1.7,19.3,5.3,60.2,6.9,80
				c0.4,4.4,3.9,7.9,8.3,8.2c15.8,1,51.4,3,65.1,1.2l0,0c-3.1-1.5-5.1-4.7-5.1-8.2l0.7-89.3c0-3.2,3.2-5.4,6.1-4.3
				c1.9,0.7,3.3,2.2,4.2,4.4c-1.3-3.8-3.3-6.5-8-5.6c0,0-45.9,0.5-68.2,1.8C65.7,59,61.1,64.3,61.7,70.4z"/>
			<defs>
				<filter id="Adobe_OpacityMaskFilter" filterUnits="userSpaceOnUse" x="63.4" y="58.8" width="74.2" height="100.4">
					<feFlood  style="flood-color:white;flood-opacity:1" result="back"/>
					<feBlend  in="SourceGraphic" in2="back" mode="normal"/>
				</filter>
			</defs>
			
				<mask maskUnits="userSpaceOnUse" x="63.4" y="58.8" width="74.2" height="100.4" id="SVGID_00000180339639513705844310000001014191475476026265_">
				<g class="st12">
					<defs>
						
							<filter id="Adobe_OpacityMaskFilter_00000163759583796020545970000008858666978939181974_" filterUnits="userSpaceOnUse" x="63.4" y="58.8" width="74.2" height="100.4">
							<feFlood  style="flood-color:white;flood-opacity:1" result="back"/>
							<feBlend  in="SourceGraphic" in2="back" mode="normal"/>
						</filter>
					</defs>
					
						<mask maskUnits="userSpaceOnUse" x="63.4" y="58.8" width="74.2" height="100.4" id="SVGID_00000180339639513705844310000001014191475476026265_">
					</mask>
					
						<linearGradient id="SVGID_00000056387160077545688080000016267564799340824970_" gradientUnits="userSpaceOnUse" x1="128.4479" y1="77.7791" x2="33.3853" y2="199.4301">
						<stop  offset="0" style="stop-color:#FFFFFF"/>
						<stop  offset="1" style="stop-color:#000000"/>
					</linearGradient>
					
						<path style="mask:url(#SVGID_00000180339639513705844310000001014191475476026265_);fill:url(#SVGID_00000056387160077545688080000016267564799340824970_);" d="
						M73,61.2l61.7-2.4c-2.5,18.9-1.5,57.2-0.5,95.1c0.1,2.2,1.4,4.3,3.4,5.2l0,0c0,0-41.2,0.5-58.9-0.8c-4.2-0.3-7.6-3.4-8.2-7.6
						c-2.4-16.2-8.2-58.1-7-80.3C63.9,65.5,67.9,61.4,73,61.2z"/>
				</g>
			</mask>
			
				<linearGradient id="SVGID_00000181775715472242740490000012001098486808074158_" gradientUnits="userSpaceOnUse" x1="128.4479" y1="77.7791" x2="33.3853" y2="199.4301">
				<stop  offset="0" style="stop-color:#FFFFFF"/>
				<stop  offset="1" style="stop-color:#FFFFFF"/>
			</linearGradient>
			<path style="opacity:0.53;fill:url(#SVGID_00000181775715472242740490000012001098486808074158_);" d="M73,61.2l61.7-2.4
				c-2.5,18.9-1.5,57.2-0.5,95.1c0.1,2.2,1.4,4.3,3.4,5.2l0,0c0,0-41.2,0.5-58.9-0.8c-4.2-0.3-7.6-3.4-8.2-7.6
				c-2.4-16.2-8.2-58.1-7-80.3C63.9,65.5,67.9,61.4,73,61.2z"/>
			<g>
				
					<linearGradient id="SVGID_00000062887343912127078730000003103654574830766245_" gradientUnits="userSpaceOnUse" x1="112.525" y1="48.562" x2="50.6084" y2="99.0571">
					<stop  offset="0" style="stop-color:#CB236D"/>
					<stop  offset="1" style="stop-color:#4C246D"/>
				</linearGradient>
				<path style="fill:url(#SVGID_00000062887343912127078730000003103654574830766245_);" d="M81.9,70.7L80,70.8
					c-0.2,0-0.4-0.1-0.4-0.3l-0.1-1.6c0-0.2,0.2-0.3,0.4-0.4l6.3-0.3c0.2,0,0.4,0.1,0.4,0.3l0.1,1.6c0,0.2-0.2,0.3-0.4,0.4l-2,0.1
					l0.4,7.3c0,0.2-0.2,0.3-0.4,0.4l-1.5,0.1c-0.2,0-0.4-0.1-0.4-0.3L81.9,70.7z"/>
				
					<linearGradient id="SVGID_00000013891916291911932420000012351539858277151877_" gradientUnits="userSpaceOnUse" x1="116.0889" y1="52.9324" x2="54.1727" y2="103.4272">
					<stop  offset="0" style="stop-color:#CB236D"/>
					<stop  offset="1" style="stop-color:#4C246D"/>
				</linearGradient>
				<path style="fill:url(#SVGID_00000013891916291911932420000012351539858277151877_);" d="M91.8,78c-2.7,0.1-4.5-1.9-4.7-4.8
					c-0.2-3,1.5-5.3,4.3-5.5c2.8-0.2,4.6,1.9,4.8,4.8C96.3,75.6,94.7,77.8,91.8,78L91.8,78z M91.8,75.8c1.3-0.1,2-1.4,1.9-3.1
					c-0.1-1.7-1-3-2.2-2.9c-1.2,0.1-2,1.4-1.9,3.1C89.7,74.7,90.6,75.9,91.8,75.8L91.8,75.8z"/>
				
					<linearGradient id="SVGID_00000079450033255207875680000005969227752556783786_" gradientUnits="userSpaceOnUse" x1="120.2335" y1="58.0145" x2="58.3175" y2="108.5091">
					<stop  offset="0" style="stop-color:#CB236D"/>
					<stop  offset="1" style="stop-color:#4C246D"/>
				</linearGradient>
				<path style="fill:url(#SVGID_00000079450033255207875680000005969227752556783786_);" d="M99.8,67.9c0-0.2,0.1-0.3,0.3-0.3
					c0.7-0.2,1.7-0.3,2.6-0.3c1.8-0.1,2.8,0.2,3.8,0.8c1,0.7,1.8,1.8,1.9,3.7c0.1,2.1-0.5,3.3-1.3,4.1c-1,1-2.5,1.5-4.2,1.6
					c-1,0.1-1.7,0-2.1,0c-0.2,0-0.3-0.1-0.4-0.3L99.8,67.9z M102.5,75.2c0.1,0,0.4,0,0.5,0c1.7-0.1,2.9-1.1,2.8-3.2
					c-0.1-2-1.3-2.7-2.8-2.6c-0.4,0-0.7,0.1-0.8,0.1L102.5,75.2z"/>
				
					<linearGradient id="SVGID_00000021100965265139418840000017477875229834600836_" gradientUnits="userSpaceOnUse" x1="124.3389" y1="63.0485" x2="62.4226" y2="113.5433">
					<stop  offset="0" style="stop-color:#CB236D"/>
					<stop  offset="1" style="stop-color:#4C246D"/>
				</linearGradient>
				<path style="fill:url(#SVGID_00000021100965265139418840000017477875229834600836_);" d="M113.9,76.8c-2.7,0.1-4.5-1.9-4.7-4.8
					c-0.2-3,1.5-5.3,4.3-5.5c2.8-0.2,4.6,1.9,4.8,4.8C118.4,74.4,116.8,76.6,113.9,76.8L113.9,76.8z M113.9,74.6
					c1.3-0.1,2-1.4,1.9-3.1c-0.1-1.7-1-3-2.2-2.9c-1.2,0.1-2,1.4-1.9,3.1C111.8,73.5,112.7,74.7,113.9,74.6L113.9,74.6z"/>
				
					<linearGradient id="SVGID_00000116917163956166779480000006527598792906401409_" gradientUnits="userSpaceOnUse" x1="127.5687" y1="67.0087" x2="65.652" y2="117.5038">
					<stop  offset="0" style="stop-color:#CB236D"/>
					<stop  offset="1" style="stop-color:#4C246D"/>
				</linearGradient>
				<path style="fill:url(#SVGID_00000116917163956166779480000006527598792906401409_);" d="M120.7,71.9c-0.8,0-1.4-0.6-1.4-1.5
					c-0.1-0.9,0.4-1.6,1.2-1.6c0.8,0,1.4,0.6,1.4,1.5C122,71.1,121.5,71.8,120.7,71.9L120.7,71.9z M121,76.4c-0.8,0-1.4-0.6-1.4-1.5
					c-0.1-0.9,0.4-1.6,1.2-1.6c0.8,0,1.4,0.6,1.4,1.5C122.3,75.7,121.8,76.4,121,76.4L121,76.4z"/>
			</g>
			<g>
				<path class="st21" d="M72.3,88.1l0.7,6.9c0.1,1.3,1.2,2.2,2.4,2.3l4,0.2c1.5,0.1,2.7-1.1,2.7-2.6v-7.5c0-1.5-1.3-2.7-2.8-2.6
					l-4.7,0.4C73.2,85.4,72.2,86.7,72.3,88.1z"/>
				<path class="st21" d="M86.5,86c6.7-0.2,32.4-1,38.9-1.3c0.8,0,1.5,0.6,1.5,1.5l0,0c0,0.8-0.6,1.4-1.4,1.4l-38.9,1.4
					c-0.7,0-1.4-0.5-1.5-1.3l0-0.2C85,86.8,85.6,86,86.5,86z"/>
				<path class="st21" d="M86.1,95.1L86.1,95.1c0.1,0.2,0.3,0.3,0.5,0.3l26.7-0.6c0.3,0,0.6-0.3,0.6-0.6v-1.8c0-0.3-0.3-0.6-0.6-0.6
					l-26,1C86.2,92.8,85.5,94.1,86.1,95.1z"/>
			</g>
			
				<linearGradient id="SVGID_00000155116538675796841180000004988691964922943629_" gradientUnits="userSpaceOnUse" x1="61.0465" y1="106.8786" x2="78.0788" y2="84.1688">
				<stop  offset="0" style="stop-color:#FDF53F"/>
				<stop  offset="1" style="stop-color:#D93C65"/>
			</linearGradient>
			<path style="fill:url(#SVGID_00000155116538675796841180000004988691964922943629_);" d="M70.6,86.5l4.8,7.3
				c0.6,0.9,1.9,0.7,2.3-0.3L81.4,82c0.2-0.7-0.2-1.5-1-1.6l-0.8-0.2c-0.7-0.1-1.3,0.3-1.5,0.9l-1.5,6.3c-0.3,1.1-1.8,1.3-2.3,0.3
				l-1.5-2.6c-0.3-0.6-1.1-0.8-1.7-0.5l0,0C70.4,85.1,70.2,85.9,70.6,86.5z"/>
			<g>
				<path class="st21" d="M72.3,107.3l0.7,6.9c0.1,1.3,1.2,2.2,2.4,2.3l4,0.2c1.5,0.1,2.7-1.1,2.7-2.6v-7.5c0-1.5-1.3-2.7-2.8-2.6
					l-4.7,0.4C73.2,104.6,72.2,105.9,72.3,107.3z"/>
				<path class="st21" d="M86.5,105.2c6.7-0.2,32.4-1,38.9-1.3c0.8,0,1.5,0.6,1.5,1.5l0,0c0,0.8-0.6,1.4-1.4,1.4l-38.9,1.4
					c-0.7,0-1.4-0.5-1.5-1.3l0-0.2C85,106,85.6,105.2,86.5,105.2z"/>
				<path class="st21" d="M86.1,114.3L86.1,114.3c0.1,0.2,0.3,0.3,0.5,0.3l26.7-0.6c0.3,0,0.6-0.3,0.6-0.6v-1.8
					c0-0.3-0.3-0.6-0.6-0.6l-26,1C86.2,112,85.5,113.3,86.1,114.3z"/>
			</g>
			<g>
				<path class="st21" d="M72.3,126.5l0.7,6.9c0.1,1.3,1.2,2.2,2.4,2.3l4,0.2c1.5,0.1,2.7-1.1,2.7-2.6v-7.5c0-1.5-1.3-2.7-2.8-2.6
					l-4.7,0.4C73.2,123.8,72.2,125.1,72.3,126.5z"/>
				<path class="st21" d="M86.5,124.4c6.7-0.2,32.4-1,38.9-1.3c0.8,0,1.5,0.6,1.5,1.5l0,0c0,0.8-0.6,1.4-1.4,1.4l-38.9,1.4
					c-0.7,0-1.4-0.5-1.5-1.3l0-0.2C85,125.2,85.6,124.4,86.5,124.4z"/>
				<path class="st21" d="M86.1,133.5L86.1,133.5c0.1,0.2,0.3,0.3,0.5,0.3l26.7-0.6c0.3,0,0.6-0.3,0.6-0.6v-1.8
					c0-0.3-0.3-0.6-0.6-0.6l-26,1C86.2,131.2,85.5,132.5,86.1,133.5z"/>
			</g>
			
				<linearGradient id="SVGID_00000005230682033942759650000016749427992239691412_" gradientUnits="userSpaceOnUse" x1="61.0465" y1="126.0705" x2="78.0788" y2="103.3607">
				<stop  offset="0" style="stop-color:#FDF53F"/>
				<stop  offset="1" style="stop-color:#D93C65"/>
			</linearGradient>
			<path style="fill:url(#SVGID_00000005230682033942759650000016749427992239691412_);" d="M70.6,105.7l4.8,7.3
				c0.6,0.9,1.9,0.7,2.3-0.3l3.7-11.5c0.2-0.7-0.2-1.5-1-1.6l-0.8-0.2c-0.7-0.1-1.3,0.3-1.5,0.9l-1.5,6.3c-0.3,1.1-1.8,1.3-2.3,0.3
				l-1.5-2.6c-0.3-0.6-1.1-0.8-1.7-0.5l0,0C70.4,104.3,70.2,105.1,70.6,105.7z"/>
			<path class="st24" d="M150,130.9c-0.2,0-0.3-0.1-0.3-0.3c0,0,0-0.9-0.1-4.2c0-0.2,0.1-0.3,0.3-0.3c0.2,0,0.3,0.1,0.3,0.3
				c0.1,3.3,0.1,4.2,0.1,4.2C150.3,130.7,150.2,130.9,150,130.9C150,130.9,150,130.9,150,130.9z"/>
			<path class="st24" d="M149.8,123c-0.2,0-0.3-0.1-0.3-0.3c-0.1-2.1-0.2-4.5-0.3-6.9c-0.1-3.3-0.3-6.8-0.4-10.1
				c-0.2-8.8,1.2-12.2,2.5-13.4c0.7-0.7,1.3-0.7,1.3-0.7c0.2,0,0.3,0.1,0.3,0.3c0,0.2-0.1,0.3-0.3,0.3c-0.1,0-3.5,0.4-3.2,13.5
				c0.1,3.3,0.2,6.8,0.4,10.1c0.1,2.5,0.2,4.8,0.3,6.9C150.1,122.8,150,122.9,149.8,123C149.8,122.9,149.8,123,149.8,123z"/>
			<path class="st24" d="M178.4,122c-0.2,0-0.3-0.1-0.3-0.3c0-0.1-0.5-8-1.3-14.6c-0.9-6.8,2.9-8.3,3-8.3c0.2-0.1,0.3,0,0.4,0.2
				c0.1,0.2,0,0.3-0.2,0.4c-0.1,0.1-3.4,1.4-2.6,7.7c0.9,6.6,1.3,14.5,1.3,14.6C178.7,121.8,178.6,122,178.4,122
				C178.4,122,178.4,122,178.4,122z"/>
		</g>
		<g>
			
				<linearGradient id="SVGID_00000181795502431428795010000006840122897641509019_" gradientUnits="userSpaceOnUse" x1="174.9962" y1="86.8673" x2="160.5887" y2="95.0909">
				<stop  offset="0" style="stop-color:#F9B776"/>
				<stop  offset="1" style="stop-color:#F47960"/>
			</linearGradient>
			<path style="fill:url(#SVGID_00000181795502431428795010000006840122897641509019_);" d="M172.8,100.3c0,0-9.2-16-10.4-17.5
				c-0.2-0.3-0.5-0.4-0.9-0.3l-2.6,0.3l-3,6.5l5-2.9c-0.5,3.4,5.9,8.5,8.1,10.3c0.2,0.2,0.2,0.5,0,0.7l-0.9,0.9
				c1.4,1.5,3.1,2.4,5,2.8L172.8,100.3z"/>
			
				<linearGradient id="SVGID_00000054987716899696894390000015161964986448505758_" gradientUnits="userSpaceOnUse" x1="4993.6406" y1="1216.297" x2="4992.5347" y2="1233.2557" gradientTransform="matrix(-0.8974 -0.4412 -0.4412 0.8974 5191.0361 1206.7792)">
				<stop  offset="0" style="stop-color:#CB236D"/>
				<stop  offset="1" style="stop-color:#4C246D"/>
			</linearGradient>
			<path style="fill:url(#SVGID_00000054987716899696894390000015161964986448505758_);" d="M168.8,97.8c0,0-0.6,0.2-0.8,0.7
				c-0.1,0.2,0,0.5,0.2,0.7c0.9,0.7,4,2.8,5.4,3.2c0.1,0,0.2-0.1,0.2-0.2c-0.1-0.3-0.3-1-1.1-1.9l0.1,0.1c0.1,0.2-0.1,0.4-0.3,0.3
				C171.6,100.1,169.7,98.9,168.8,97.8z"/>
			
				<linearGradient id="SVGID_00000072968574628287647040000005815167085558119080_" gradientUnits="userSpaceOnUse" x1="173.6024" y1="88.9182" x2="222.8973" y2="58.0589">
				<stop  offset="0" style="stop-color:#F9B776"/>
				<stop  offset="1" style="stop-color:#F47960"/>
			</linearGradient>
			<path style="fill:url(#SVGID_00000072968574628287647040000005815167085558119080_);" d="M169.2,104.2c0,0-1.4-3.3-1.4-3.3
				c-1.3-7.7-4.3-14.2-5.2-15.9c-0.2-0.3-0.4-0.5-0.8-0.5l-2.6-0.2L155,90l5.5-1.8c-1.2,3.2,4.1,9.5,5.9,11.8
				c0.2,0.2,0.1,0.6-0.1,0.7l-1,0.7c1.1,1.7,2.6,3,4.3,3.8L169.2,104.2z"/>
			
				<linearGradient id="SVGID_00000168103647500505609000000010209248964905189041_" gradientUnits="userSpaceOnUse" x1="4870.354" y1="1701.7008" x2="4869.248" y2="1718.6588" gradientTransform="matrix(-0.7895 -0.6137 -0.6137 0.7895 5060.0742 1744.6309)">
				<stop  offset="0" style="stop-color:#CB236D"/>
				<stop  offset="1" style="stop-color:#4C246D"/>
			</linearGradient>
			<path style="fill:url(#SVGID_00000168103647500505609000000010209248964905189041_);" d="M165.8,101c0,0-0.6,0.1-0.9,0.5
				c-0.1,0.2-0.1,0.5,0.1,0.7c0.8,0.8,3.3,3.5,4.6,4.2c0.1,0.1,0.2,0,0.2-0.1c0-0.3-0.1-1-0.6-2.1l0,0.1c0,0.2-0.2,0.3-0.3,0.2
				C168.1,103.8,166.5,102.3,165.8,101z"/>
			<g>
				
					<linearGradient id="SVGID_00000053508442354802774380000003507904795786434489_" gradientUnits="userSpaceOnUse" x1="4729.0981" y1="97.6331" x2="4731.6616" y2="88.18" gradientTransform="matrix(-1 0 0 1 4886.4629 0)">
					<stop  offset="0" style="stop-color:#A737D5"/>
					<stop  offset="1" style="stop-color:#EF497A"/>
				</linearGradient>
				<path style="fill:url(#SVGID_00000053508442354802774380000003507904795786434489_);" d="M147.3,83c0,0-2.3,3.4-2.5,5
					c-0.2,1.6,0.6,2.1,3.1,2.3c7.2,0.6,10.8-1.6,10.8-1.6c0.5-3.1,0.8-3.9,5-5.7c0,0-5.2,0.4-6.3,0C156.3,82.7,147.3,83,147.3,83z"
					/>
			</g>
			<g>
				
					<linearGradient id="SVGID_00000008106961534341580110000010627297127810624934_" gradientUnits="userSpaceOnUse" x1="158.5342" y1="71.163" x2="124.5705" y2="103.9245">
					<stop  offset="0" style="stop-color:#A737D5"/>
					<stop  offset="1" style="stop-color:#EF497A"/>
				</linearGradient>
				<path style="fill:url(#SVGID_00000008106961534341580110000010627297127810624934_);" d="M153.6,82.6c0,0,2.7-2.6,4-4.3
					c0.7-0.9,0.9-2.1,0.6-3.2c-0.6-2-1.7-4.2-1.8-4.5c-0.2-0.5-3.2-0.5-3.2-0.5s-5.9,3.9-8.3,10.4l2.6,0.8c0,0,1.6-2.6,3.1-4.3
					c0,0-2.7,3.5-2.7,4.9L153.6,82.6z"/>
				
					<linearGradient id="SVGID_00000058559436797765119730000011609807693692437401_" gradientUnits="userSpaceOnUse" x1="4732.1826" y1="74.1189" x2="4731.2036" y2="67.8377" gradientTransform="matrix(-1 0 0 1 4886.4629 0)">
					<stop  offset="0" style="stop-color:#F9B776"/>
					<stop  offset="1" style="stop-color:#F47960"/>
				</linearGradient>
				<path style="fill:url(#SVGID_00000058559436797765119730000011609807693692437401_);" d="M156.8,67.7c0,0.1-0.8,2.7-0.9,2.8
					c-0.1,0.1-1.7,0.1-2.5-0.4l1.6-3.5L156.8,67.7z"/>
				
					<linearGradient id="SVGID_00000056393753006019114570000006140188656206037890_" gradientUnits="userSpaceOnUse" x1="4516.9995" y1="1817.4988" x2="4523.3252" y2="1821.7954" gradientTransform="matrix(-0.723 -0.6909 -0.6909 0.723 4680.8994 1874.1011)">
					<stop  offset="0" style="stop-color:#F9B776"/>
					<stop  offset="1" style="stop-color:#F47960"/>
				</linearGradient>
				<path style="fill:url(#SVGID_00000056393753006019114570000006140188656206037890_);" d="M159,64.8c0,0,0.6,1.3-0.1,3.3
					c-0.7,2-1.7,2.1-2.4,1.7c-0.7-0.5-1.6-1.4-1.7-3.1C154.7,64.8,158.2,63.2,159,64.8z"/>
				
					<linearGradient id="SVGID_00000015335373633534816280000005481962068659882152_" gradientUnits="userSpaceOnUse" x1="4528.0391" y1="1809.4271" x2="4517.4292" y2="1820.4656" gradientTransform="matrix(-0.723 -0.6909 -0.6909 0.723 4680.8994 1874.1011)">
					<stop  offset="0" style="stop-color:#CB236D"/>
					<stop  offset="1" style="stop-color:#4C246D"/>
				</linearGradient>
				<path style="fill:url(#SVGID_00000015335373633534816280000005481962068659882152_);" d="M156.1,66.5c0,0,1.2-2.7,3-1l0.1,0.7
					c0,0,1.7-0.5,1.1-2c-0.6-1.5-2.6-2.6-4.4-1.6c-1.8,1-2.4,2.2-2.3,3.6c0.1,1.4,1.2,0.9,1.2,0.9s0.2-1,0.7-1.2
					c0.5-0.2,0.5,0.6,0.5,0.6L156.1,66.5z"/>
				
					<linearGradient id="SVGID_00000090267607605916405090000004762899615986747324_" gradientUnits="userSpaceOnUse" x1="4517.3784" y1="1816.9407" x2="4523.7046" y2="1821.2373" gradientTransform="matrix(-0.723 -0.6909 -0.6909 0.723 4680.8994 1874.1011)">
					<stop  offset="0" style="stop-color:#F9B776"/>
					<stop  offset="1" style="stop-color:#F47960"/>
				</linearGradient>
				<path style="fill:url(#SVGID_00000090267607605916405090000004762899615986747324_);" d="M155.7,66.5c0,0,0.6-1.4-0.2-1.4
					c-0.9,0-0.5,1.3-0.3,1.8L155.7,66.5z"/>
				
					<linearGradient id="SVGID_00000155147738169102342920000011173082032839327401_" gradientUnits="userSpaceOnUse" x1="4736.7007" y1="82.1272" x2="4751.0527" y2="82.1272" gradientTransform="matrix(-1 0 0 1 4886.4629 0)">
					<stop  offset="0" style="stop-color:#F9B776"/>
					<stop  offset="1" style="stop-color:#F47960"/>
				</linearGradient>
				<path style="fill:url(#SVGID_00000155147738169102342920000011173082032839327401_);" d="M158.7,83.6l-2-2.2l-2.3,0.6
					c0,0-2.7,0.4-4.3,0c-1.6-0.4-1.6-0.4-1.6-0.4l-3.5-1.1l-0.6,1.6c-0.1,0.4,0,0.8,0.3,1.1c0.3,0.2,0.7,0.5,0.9,0.6
					c0.5,0.2,10.7,0.1,10.7,0.1L158.7,83.6z"/>
				
					<linearGradient id="SVGID_00000074407093190379765980000018012632212607922098_" gradientUnits="userSpaceOnUse" x1="4638.5483" y1="1615.1487" x2="4626.9468" y2="1627.2192" gradientTransform="matrix(-0.7808 -0.6248 -0.6248 0.7808 4779.3604 1691.322)">
					<stop  offset="0" style="stop-color:#CB236D"/>
					<stop  offset="1" style="stop-color:#4C246D"/>
				</linearGradient>
				<path style="fill:url(#SVGID_00000074407093190379765980000018012632212607922098_);" d="M155.2,63.5c0.5-0.1,0.7-0.7,0.4-1
					c-1.1-1.2-3.1-2.5-6-0.5c-3.2,2.2-5,3.3-5.8,3c-0.5-0.1-1,0.4-0.7,0.9c0.2,0.4,0.6,0.7,1.2,1.1
					C149.6,69.6,152.3,63.9,155.2,63.5z"/>
			</g>
			<g>
				
					<linearGradient id="SVGID_00000049191550641753051540000002287581272044482959_" gradientUnits="userSpaceOnUse" x1="4675.9395" y1="457.3374" x2="4668.4316" y2="459.3951" gradientTransform="matrix(-0.9988 -4.940000e-02 -4.940000e-02 0.9988 4843.3413 -143.8357)">
					<stop  offset="0" style="stop-color:#2B3582"/>
					<stop  offset="1" style="stop-color:#150E42"/>
				</linearGradient>
				<path style="fill:url(#SVGID_00000049191550641753051540000002287581272044482959_);" d="M152,84.4C152,84.4,152,84.4,152,84.4
					l9.3,0c0.2,0,0.4-0.2,0.4-0.4c0-0.2-0.2-0.4-0.4-0.4l-9.3,0c-0.2,0-0.4,0.2-0.4,0.4C151.6,84.2,151.8,84.4,152,84.4z"/>
				
					<linearGradient id="SVGID_00000122682395635177164650000000044300742460193458_" gradientUnits="userSpaceOnUse" x1="4725.8813" y1="77.1112" x2="4720.5542" y2="82.7418" gradientTransform="matrix(-1 0 0 1 4886.4629 0)">
					<stop  offset="0" style="stop-color:#2B3582"/>
					<stop  offset="1" style="stop-color:#150E42"/>
				</linearGradient>
				<path style="fill:url(#SVGID_00000122682395635177164650000000044300742460193458_);" d="M169.7,76H162c-0.6,0-1.1,0.3-1.3,0.8
					l-3.6,7.6h9.6c0.4,0,0.7-0.2,0.8-0.6l2.8-7C170.5,76.4,170.2,76,169.7,76z"/>
				
					<linearGradient id="SVGID_00000093163913866403766830000001237571748729563022_" gradientUnits="userSpaceOnUse" x1="4722.6606" y1="78.5132" x2="4720.2437" y2="82.1531" gradientTransform="matrix(-1 0 0 1 4886.4629 0)">
					<stop  offset="0" style="stop-color:#53D8FF"/>
					<stop  offset="1" style="stop-color:#3840F7"/>
				</linearGradient>
				<path style="fill:url(#SVGID_00000093163913866403766830000001237571748729563022_);" d="M164.3,79.9c-0.2,0.5,0,1,0.3,1.1
					c0.3,0.1,0.7-0.2,0.9-0.8s0-1-0.3-1.1C164.8,79,164.4,79.4,164.3,79.9z"/>
			</g>
		</g>
		<g>
			<g>
				<g>
					
						<linearGradient id="SVGID_00000174597372024681636210000000975006327545462442_" gradientUnits="userSpaceOnUse" x1="32.1796" y1="160.8472" x2="40.1964" y2="160.8472">
						<stop  offset="0" style="stop-color:#53D8FF"/>
						<stop  offset="1" style="stop-color:#3840F7"/>
					</linearGradient>
					<path style="fill:url(#SVGID_00000174597372024681636210000000975006327545462442_);" d="M40,160.5c-1.4,0.1-3.8,0.3-5.6,0.4
						c-1.1,0-1.8-0.1-2.2-0.2c0,0,0,0.1,0,0.1c0,0.2,0.2,0.4,0.4,0.4c3.6,0.2,6.4,0.1,7.4,0c0.2,0,0.3-0.2,0.2-0.4
						C40.1,160.6,40,160.5,40,160.5z"/>
					
						<linearGradient id="SVGID_00000175299205228092036990000003008964595576929983_" gradientUnits="userSpaceOnUse" x1="32.1791" y1="159.276" x2="39.97" y2="159.276">
						<stop  offset="0" style="stop-color:#2B3582"/>
						<stop  offset="1" style="stop-color:#150E42"/>
					</linearGradient>
					<path style="fill:url(#SVGID_00000175299205228092036990000003008964595576929983_);" d="M34.3,160.9c1.9-0.1,4.3-0.3,5.6-0.4
						c-1.4-1.7-5.6-2.8-5.6-2.8h-1.2c-0.8,1.2-1,2.3-0.9,3C32.6,160.8,33.2,160.9,34.3,160.9z"/>
					
						<linearGradient id="SVGID_00000095335459963608712770000015353858530542436792_" gradientUnits="userSpaceOnUse" x1="32.9197" y1="157.0824" x2="35.1779" y2="157.0824">
						<stop  offset="0" style="stop-color:#F9B776"/>
						<stop  offset="1" style="stop-color:#F47960"/>
					</linearGradient>
					<path style="fill:url(#SVGID_00000095335459963608712770000015353858530542436792_);" d="M32.9,155.7L33,158
						c0,0.2,0.2,0.4,0.4,0.5c0.2,0,0.6,0,0.9-0.1c0.2-0.1,0.4-0.2,0.4-0.5l0.4-2.2H32.9z"/>
				</g>
				<g>
					<g>
						
							<linearGradient id="SVGID_00000170272297564583092920000003197930866819580852_" gradientUnits="userSpaceOnUse" x1="16.1974" y1="160.6743" x2="19.2696" y2="160.6743">
							<stop  offset="0" style="stop-color:#53D8FF"/>
							<stop  offset="1" style="stop-color:#3840F7"/>
						</linearGradient>
						<path style="fill:url(#SVGID_00000170272297564583092920000003197930866819580852_);" d="M17.2,160.8c-0.6-0.1-0.9-0.4-1-0.7
							c0,0,0,0,0,0c-0.1,0.3,0.1,0.7,0.5,0.9c0.5,0.2,1,0.2,1.4,0.2c0.4,0,0.9-0.2,1.1-0.5l0,0C18.8,160.9,18.2,161,17.2,160.8z"/>
						
							<linearGradient id="SVGID_00000041258894097242717740000004688337415075933114_" gradientUnits="userSpaceOnUse" x1="16.2198" y1="158.3088" x2="20.7291" y2="158.3088">
							<stop  offset="0" style="stop-color:#2B3582"/>
							<stop  offset="1" style="stop-color:#150E42"/>
						</linearGradient>
						<path style="fill:url(#SVGID_00000041258894097242717740000004688337415075933114_);" d="M20,155.7h-1c-1.5,0-2.5,3.2-2.8,4.4
							c0.1,0.3,0.4,0.6,1,0.7c1,0.1,1.6,0.1,2.1-0.1c0.8-1.1,1.2-2.7,1.4-3.6C20.9,156.1,20,155.7,20,155.7z"/>
					</g>
					
						<linearGradient id="SVGID_00000073695098331700063960000000830531493174625455_" gradientUnits="userSpaceOnUse" x1="18.5637" y1="155.1999" x2="21.2624" y2="155.1999">
						<stop  offset="0" style="stop-color:#F9B776"/>
						<stop  offset="1" style="stop-color:#F47960"/>
					</linearGradient>
					<path style="fill:url(#SVGID_00000073695098331700063960000000830531493174625455_);" d="M19.1,153.6l-0.6,2.2
						c-0.1,0.3,0.1,0.5,0.3,0.7c0.3,0.2,0.7,0.3,1.1,0.3c0.2,0,0.3-0.2,0.4-0.3l0.8-2.3L19.1,153.6z"/>
				</g>
				
					<linearGradient id="SVGID_00000093899206488407319280000008513920441108662671_" gradientUnits="userSpaceOnUse" x1="39.4309" y1="130.3347" x2="9.5576" y2="173.871">
					<stop  offset="0" style="stop-color:#18459F"/>
					<stop  offset="0.1139" style="stop-color:#2874B5"/>
				</linearGradient>
				<path style="fill:url(#SVGID_00000093899206488407319280000008513920441108662671_);" d="M18.5,154.3c0.7,0.6,2.9,0.7,2.9,0.7
					c8.1-19.4,11.4-22.1,11.4-22.1c-1.2,7.3-0.2,23.5-0.2,23.5c1.3,0.6,3.1,0,3.1,0c0.1-12,2-22.4,4.1-30.7c-5.5-0.1-8.4-2-9.3-2.7
					C25.9,130.2,18.5,154.3,18.5,154.3z"/>
				
					<linearGradient id="SVGID_00000027599413698740693560000009573184469476978591_" gradientUnits="userSpaceOnUse" x1="52.8449" y1="98.5657" x2="-12.3178" y2="155.2408">
					<stop  offset="0" style="stop-color:#FDF53F"/>
					<stop  offset="1" style="stop-color:#D93C65"/>
				</linearGradient>
				<path style="fill:url(#SVGID_00000027599413698740693560000009573184469476978591_);" d="M31.9,100.6c-1,5.2-0.7,14.4-0.4,18.6
					c0.1,1.2-1.2,4.3-1.9,5.4c-0.1,0.2,0,0.4,0.1,0.5c1.1,0.6,5.4,0.9,9.8,1.1c0.3,0,0.6-0.2,0.6-0.5c3.3-12.2,7-19.9,7-19.9
					C42.9,99.2,31.9,100.6,31.9,100.6z"/>
				
					<linearGradient id="SVGID_00000147185928076920761120000012227602040123365046_" gradientUnits="userSpaceOnUse" x1="27.6582" y1="145.2055" x2="28.9513" y2="142.6192">
					<stop  offset="0" style="stop-color:#53D8FF"/>
					<stop  offset="1" style="stop-color:#3840F7"/>
				</linearGradient>
				<path style="fill:url(#SVGID_00000147185928076920761120000012227602040123365046_);" d="M33.3,132.3c0,0-0.1,0-0.1,0
					c-0.1-0.1-0.2-0.2-0.1-0.4c0-0.1,1.1-1.8,3.2-2.8c0.1-0.1,0.3,0,0.3,0.1c0.1,0.1,0,0.3-0.1,0.3c-2,1-3,2.6-3,2.6
					C33.5,132.3,33.4,132.3,33.3,132.3z"/>
				<g>
					
						<linearGradient id="SVGID_00000155105403741104415590000015670546771203357091_" gradientUnits="userSpaceOnUse" x1="30.9278" y1="115.8624" x2="21.3208" y2="124.3697">
						<stop  offset="0" style="stop-color:#F9B776"/>
						<stop  offset="1" style="stop-color:#F47960"/>
					</linearGradient>
					<path style="fill:url(#SVGID_00000155105403741104415590000015670546771203357091_);" d="M25.4,115.4c0.3,2.4,1.3,5,3.3,7.8
						l0.7-0.6c0,0-0.9-3.5-0.4-7.5C27.8,114.9,26.4,115.1,25.4,115.4z"/>
					
						<linearGradient id="SVGID_00000046316642398431911840000004560976737701658813_" gradientUnits="userSpaceOnUse" x1="47.3447" y1="93.1613" x2="-14.244" y2="146.7279">
						<stop  offset="0" style="stop-color:#FDF53F"/>
						<stop  offset="1" style="stop-color:#D93C65"/>
					</linearGradient>
					<path style="fill:url(#SVGID_00000046316642398431911840000004560976737701658813_);" d="M33,107l-1.2-6.4
						c0,0-7.7,5.9-6.5,14.8c1-0.3,2.4-0.5,3.6-0.3C29.4,112.3,30.4,109.2,33,107z"/>
				</g>
				<g>
					
						<linearGradient id="SVGID_00000017485193196177424060000010286018486736636606_" gradientUnits="userSpaceOnUse" x1="57.0262" y1="104.293" x2="-4.5618" y2="157.859">
						<stop  offset="0" style="stop-color:#FDF53F"/>
						<stop  offset="1" style="stop-color:#D93C65"/>
					</linearGradient>
					<path style="fill:url(#SVGID_00000017485193196177424060000010286018486736636606_);" d="M47.1,105.8l-3,6.4
						c0.5,3.9,2.6,5.5,4.8,6.2c0.1-1.8,0.6-3.2,1-4.2C47.1,111.3,47.1,105.8,47.1,105.8z"/>
					
						<linearGradient id="SVGID_00000102538104578613049970000009512752795872227211_" gradientUnits="userSpaceOnUse" x1="48.9374" y1="116.6671" x2="56.5033" y2="116.6671">
						<stop  offset="0" style="stop-color:#F9B776"/>
						<stop  offset="1" style="stop-color:#F47960"/>
					</linearGradient>
					<path style="fill:url(#SVGID_00000102538104578613049970000009512752795872227211_);" d="M49.9,114.2c-0.4,1-0.9,2.4-1,4.2
						c6,2.3,7.6-2.2,7.6-2.2l-1.1-0.2C52.9,116.3,51.2,115.5,49.9,114.2z"/>
				</g>
				
					<linearGradient id="SVGID_00000034811174502785033090000007774208380216540293_" gradientUnits="userSpaceOnUse" x1="41.583" y1="96.4482" x2="41.5004" y2="110.577">
					<stop  offset="0" style="stop-color:#F9B776"/>
					<stop  offset="1" style="stop-color:#F47960"/>
				</linearGradient>
				<path style="fill:url(#SVGID_00000034811174502785033090000007774208380216540293_);" d="M44.4,97.9l-1.4,5.3
					c-0.2,0.6-0.8,0.9-1.4,0.7c-0.6-0.2-1.4-0.6-2.1-0.9c-0.7-0.4-0.9-1.3-0.5-2l3-4.5L44.4,97.9z"/>
			</g>
			<g>
				
					<linearGradient id="SVGID_00000043414779624517335510000000055306596485970353_" gradientUnits="userSpaceOnUse" x1="-310.1477" y1="1818.194" x2="-317.1026" y2="1827.3947" gradientTransform="matrix(0.9897 -0.1428 0.1428 0.9897 93.4828 -1749.6307)">
					<stop  offset="0" style="stop-color:#F9B776"/>
					<stop  offset="1" style="stop-color:#F47960"/>
				</linearGradient>
				<path style="fill:url(#SVGID_00000043414779624517335510000000055306596485970353_);" d="M47.5,93.9c0,0.1-1.2,6-1.2,6l-3.4-0.8
					l0.3-5.8C43.2,93.4,47.3,92.4,47.5,93.9z"/>
				
					<linearGradient id="SVGID_00000092433143139200129500000018383978153631857041_" gradientUnits="userSpaceOnUse" x1="-315.4592" y1="1820.4133" x2="-307.1516" y2="1820.4133" gradientTransform="matrix(0.9897 -0.1428 0.1428 0.9897 93.4828 -1749.6307)">
					<stop  offset="0" style="stop-color:#2B3582"/>
					<stop  offset="1" style="stop-color:#150E42"/>
				</linearGradient>
				<path style="fill:url(#SVGID_00000092433143139200129500000018383978153631857041_);" d="M44,94.6l-0.4,3c0,0,0,0.1,0,0.1
					c0,0.2,0.2,1,1,0.8c0.7-0.2,1.4-0.4,1.9-0.2c0.2,0.1,0.3,0.3,0.3,0.5c-0.1,0.5-0.4,1.8-0.8,2.8c-0.1,0.2-0.3,0.3-0.5,0.3
					c-0.6-0.2-2-0.6-3-1.2c-0.1-0.1-0.2-0.2-0.2-0.4c0-0.8,0.1-3.1,0-3.8c-0.1-0.6-0.8-1-1.2-1.1c-0.1,0-0.2-0.1-0.2-0.2
					c-0.2-0.4-0.4-1.3,0.7-1.6c0.2-0.1,0.4-0.3,0.3-0.6c-0.2-0.5-0.2-1.2,0.6-1.5c0.9-0.4,1.5,0.1,1.9,0.5c0.1,0.2,0.4,0.2,0.5,0.1
					c0.1-0.1,0.2-0.1,0.4,0c0.2,0.1,0.5,0,0.6-0.2c0.2-0.4,0.6-0.9,1.5-0.7c1.5,0.3,1.7,1.9,1.3,2.9c-0.4,1-2,0.6-2.8,0.1
					c-0.6-0.4-1.4,0-1.8,0.2C44.1,94.4,44,94.5,44,94.6z"/>
				
					<linearGradient id="SVGID_00000173880528871365249490000014019617650312134533_" gradientUnits="userSpaceOnUse" x1="-320.3339" y1="1825.4802" x2="-314.7555" y2="1819.757" gradientTransform="matrix(0.9897 -0.1428 0.1428 0.9897 93.4828 -1749.6307)">
					<stop  offset="0" style="stop-color:#F9B776"/>
					<stop  offset="1" style="stop-color:#F47960"/>
				</linearGradient>
				<path style="fill:url(#SVGID_00000173880528871365249490000014019617650312134533_);" d="M42.3,97.6c0,0,0.6-1.7,0-2.2
					c-0.6-0.4-1.6-0.2-1.4,1.1C41.1,98.1,42.3,97.6,42.3,97.6z"/>
			</g>
			
				<linearGradient id="SVGID_00000151527667256655662920000005820201080947685276_" gradientUnits="userSpaceOnUse" x1="55.6994" y1="115.7785" x2="58.4088" y2="115.7785">
				<stop  offset="0" style="stop-color:#F9B776"/>
				<stop  offset="1" style="stop-color:#F47960"/>
			</linearGradient>
			<path style="fill:url(#SVGID_00000151527667256655662920000005820201080947685276_);" d="M56.1,117.1c0.3,0.2,1.3-0.3,2-0.6
				c0.3-0.2,0.5-0.5,0.4-0.9c-0.2-0.5-0.4-1.1-0.7-1.2C57.1,114.3,54.8,116.1,56.1,117.1z"/>
			<g>
				<g>
					
						<linearGradient id="SVGID_00000054949491816779694720000016781426746263391158_" gradientUnits="userSpaceOnUse" x1="62.4476" y1="106.0435" x2="-19.4435" y2="165.7816">
						<stop  offset="0" style="stop-color:#2B3582"/>
						<stop  offset="1" style="stop-color:#150E42"/>
					</linearGradient>
					<path style="fill:url(#SVGID_00000054949491816779694720000016781426746263391158_);" d="M4.7,132.5l56.5-20.1l3,8.3L7.7,141.3
						c-1.2,0.4-2.5,0-3.2-1.2c-0.7-1.1-1.3-2.9-1.3-5.6C3.2,133.7,3.8,132.8,4.7,132.5z"/>
					<g>
						
							<linearGradient id="SVGID_00000140727819777865566850000009528676641860523684_" gradientUnits="userSpaceOnUse" x1="65.3186" y1="119.3381" x2="76.1052" y2="109.9621">
							<stop  offset="0" style="stop-color:#2B3582"/>
							<stop  offset="1" style="stop-color:#150E42"/>
						</linearGradient>
						<path style="fill:url(#SVGID_00000140727819777865566850000009528676641860523684_);" d="M78.6,110.2l-7.8,1
							c0,1.1,0.4,2.5,1.5,4.1l6.5-4.3C79.2,110.7,79,110.2,78.6,110.2z"/>
						
							<linearGradient id="SVGID_00000162312270588535278780000003261116932851295119_" gradientUnits="userSpaceOnUse" x1="74.7494" y1="105.5767" x2="34.8112" y2="146.6212">
							<stop  offset="0" style="stop-color:#FDF53F"/>
							<stop  offset="1" style="stop-color:#D93C65"/>
						</linearGradient>
						<path style="fill:url(#SVGID_00000162312270588535278780000003261116932851295119_);" d="M61.1,112.4c-0.4,5.2,3,8.3,3,8.3
							l8.2-5.4c-1.2-1.6-1.5-3-1.5-4.1L61.1,112.4z"/>
					</g>
				</g>
				
					<linearGradient id="SVGID_00000108276849140717577460000000302476076572440251_" gradientUnits="userSpaceOnUse" x1="50.3943" y1="106.7749" x2="14.3514" y2="143.8163">
					<stop  offset="0" style="stop-color:#A737D5"/>
					<stop  offset="1" style="stop-color:#EF497A"/>
				</linearGradient>
				<path style="fill:url(#SVGID_00000108276849140717577460000000302476076572440251_);" d="M5.4,135c-0.1,0-0.1,0-0.2-0.1
					c0-0.1,0-0.2,0.1-0.2l54-19.1c0.1,0,0.2,0,0.2,0.1c0,0.1,0,0.2-0.1,0.2L5.4,135C5.4,135,5.4,135,5.4,135z"/>
				
					<linearGradient id="SVGID_00000025427807567441229120000004546618552883507892_" gradientUnits="userSpaceOnUse" x1="51.3262" y1="110.03" x2="15.2832" y2="147.0715">
					<stop  offset="0" style="stop-color:#A737D5"/>
					<stop  offset="1" style="stop-color:#EF497A"/>
				</linearGradient>
				<path style="fill:url(#SVGID_00000025427807567441229120000004546618552883507892_);" d="M6.3,138.3c-0.1,0-0.1,0-0.2-0.1
					c0-0.1,0-0.2,0.1-0.2l54-19.1c0.1,0,0.2,0,0.2,0.1c0,0.1,0,0.2-0.1,0.2L6.3,138.3C6.3,138.3,6.3,138.3,6.3,138.3z"/>
			</g>
			
				<linearGradient id="SVGID_00000046306604726162588070000005902232850811255739_" gradientUnits="userSpaceOnUse" x1="34.7217" y1="120.1467" x2="25.1146" y2="128.6539">
				<stop  offset="0" style="stop-color:#F9B776"/>
				<stop  offset="1" style="stop-color:#F47960"/>
			</linearGradient>
			<path style="fill:url(#SVGID_00000046306604726162588070000005902232850811255739_);" d="M29.1,122.5l3.5-0.3l1.5,1.4
				c0,0-0.4,0.5-1.5,0.2c-1.1-0.3-2.6-0.4-2.6-0.4s-1.5,0.7-1.6-0.6L29.1,122.5z"/>
		</g>
		<g>
			
				<linearGradient id="SVGID_00000021115423641841693790000011236962122077210794_" gradientUnits="userSpaceOnUse" x1="11830.6924" y1="-4241.9258" x2="11819.2539" y2="-4248.8584" gradientTransform="matrix(-0.9972 7.430000e-02 0.2459 0.8948 12955.042 3019.8633)">
				<stop  offset="0" style="stop-color:#53D8FF"/>
				<stop  offset="1" style="stop-color:#3840F7"/>
			</linearGradient>
			<polygon style="fill:url(#SVGID_00000021115423641841693790000011236962122077210794_);" points="120.7,97.1 121.4,99.6 
				122.8,98.1 			"/>
			
				<linearGradient id="SVGID_00000106834612729347301060000006072792928755259542_" gradientUnits="userSpaceOnUse" x1="11824.3438" y1="-4244.4888" x2="11811.2539" y2="-4258.3296" gradientTransform="matrix(-0.9972 7.430000e-02 0.2459 0.8948 12955.042 3019.8633)">
				<stop  offset="0" style="stop-color:#53D8FF"/>
				<stop  offset="1" style="stop-color:#3840F7"/>
			</linearGradient>
			<path style="fill:url(#SVGID_00000106834612729347301060000006072792928755259542_);" d="M131.7,92.9l-5.4,7.6
				c-0.1,0.1-0.3,0.2-0.4,0.3c-0.2,0-0.4,0-0.5-0.1L118,95c-0.1-0.1-0.1-0.2-0.1-0.3c0-0.1,0.1-0.2,0.2-0.2L131.7,92.9z"/>
			
				<linearGradient id="SVGID_00000127024975220732403440000007507446417410692235_" gradientUnits="userSpaceOnUse" x1="11829.8564" y1="-4242.041" x2="11819.1719" y2="-4248.5171" gradientTransform="matrix(-0.9972 7.430000e-02 0.2459 0.8948 12955.042 3019.8633)">
				<stop  offset="0" style="stop-color:#53D8FF"/>
				<stop  offset="1" style="stop-color:#3840F7"/>
			</linearGradient>
			<polygon style="fill:url(#SVGID_00000127024975220732403440000007507446417410692235_);" points="120.7,97.1 131.7,92.9 
				121.9,98 122.1,98.7 			"/>
			
				<linearGradient id="SVGID_00000178197361933533652790000017472614148645950643_" gradientUnits="userSpaceOnUse" x1="-15901.2852" y1="-3806.4717" x2="-15896.4033" y2="-3807.8857" gradientTransform="matrix(0.9972 -7.430000e-02 7.430000e-02 0.9972 16259.167 2713.938)">
				<stop  offset="0" style="stop-color:#53D8FF"/>
				<stop  offset="1" style="stop-color:#3840F7"/>
			</linearGradient>
			<polygon style="fill:url(#SVGID_00000178197361933533652790000017472614148645950643_);" points="122.7,98.6 121.4,99.6 
				121.9,98 			"/>
		</g>
		<g>
			<path class="st68" d="M58.8,104.9l-0.5-0.3c-0.1,0-0.1-0.1,0-0.2c0-0.1,0.1-0.1,0.2,0l0,0l0.5,0.3c0.1,0,0.1,0.1,0,0.2
				C58.9,104.9,58.8,104.9,58.8,104.9z"/>
			<path class="st68" d="M57.1,103.8l-0.5-0.3c-0.1,0-0.1-0.1,0-0.2c0-0.1,0.1-0.1,0.2,0l0,0l0.5,0.3c0.1,0,0.1,0.1,0,0.2
				C57.3,103.8,57.2,103.8,57.1,103.8z"/>
			<path class="st68" d="M55.4,102.8l-0.5-0.3c-0.1,0-0.1-0.1-0.1-0.2c0-0.1,0.1-0.1,0.2-0.1l0,0l0.5,0.3c0.1,0,0.1,0.1,0.1,0.2
				C55.5,102.8,55.4,102.8,55.4,102.8z"/>
			<path class="st68" d="M53.6,101.9l-0.6-0.2c-0.1,0-0.1-0.1-0.1-0.2c0-0.1,0.1-0.1,0.2-0.1l0,0l0.6,0.2c0.1,0,0.1,0.1,0.1,0.2
				C53.7,101.9,53.6,102,53.6,101.9z"/>
			<path class="st68" d="M51.7,101.3l-0.6-0.2c-0.1,0-0.1-0.1-0.1-0.2c0-0.1,0.1-0.1,0.2-0.1l0,0l0.6,0.2c0.1,0,0.1,0.1,0.1,0.2
				C51.9,101.3,51.8,101.3,51.7,101.3z"/>
			<path class="st68" d="M49.8,100.9l-0.6-0.1c-0.1,0-0.1-0.1-0.1-0.2c0-0.1,0.1-0.1,0.2-0.1l0,0l0.6,0.1c0.1,0,0.1,0.1,0.1,0.2
				C49.9,100.8,49.8,100.9,49.8,100.9z"/>
			<path class="st68" d="M47.8,100.6l-0.6,0c-0.1,0-0.2-0.1-0.2-0.2c0-0.1,0.1-0.2,0.2-0.2l0,0l0.6,0c0.1,0,0.2,0.1,0.2,0.2
				C47.9,100.5,47.9,100.6,47.8,100.6z"/>
			<path class="st68" d="M45.8,100.6l-0.6,0c-0.1,0-0.2-0.1-0.2-0.2c0-0.1,0.1-0.2,0.2-0.2h0l0.6,0c0.1,0,0.2,0.1,0.2,0.2
				C46,100.5,45.9,100.6,45.8,100.6z"/>
			<path class="st68" d="M43.8,100.9l-0.6,0.1c-0.1,0-0.2,0-0.2-0.1c0-0.1,0-0.2,0.1-0.2l0,0l0.6-0.1c0.1,0,0.2,0,0.2,0.1
				C44,100.8,43.9,100.8,43.8,100.9z"/>
			<path class="st68" d="M41.9,101.4l-0.6,0.2c-0.1,0-0.2,0-0.2-0.1c0-0.1,0-0.2,0.1-0.2l0,0l0.6-0.2c0.1,0,0.2,0,0.2,0.1
				C42.1,101.3,42,101.4,41.9,101.4z"/>
			<path class="st68" d="M40.1,102.2l-0.5,0.3l0,0c-0.1,0.1-0.2,0-0.2-0.1c-0.1-0.1,0-0.2,0.1-0.2l0,0l0.5-0.3c0.1,0,0.2,0,0.2,0.1
				S40.2,102.2,40.1,102.2z"/>
			<path class="st68" d="M38.5,103.3l-0.5,0.4c-0.1,0.1-0.2,0.1-0.3,0c-0.1-0.1-0.1-0.2,0-0.3l0,0l0.5-0.4c0.1-0.1,0.2-0.1,0.3,0
				C38.6,103.2,38.6,103.3,38.5,103.3z"/>
			<path class="st68" d="M37.1,104.7l-0.4,0.5c-0.1,0.1-0.2,0.1-0.3,0c-0.1-0.1-0.1-0.2,0-0.3l0,0l0.4-0.5c0.1-0.1,0.2-0.1,0.3,0
				C37.2,104.5,37.2,104.7,37.1,104.7z"/>
			<path class="st68" d="M36,106.3l-0.3,0.5c-0.1,0.1-0.2,0.1-0.3,0.1c-0.1-0.1-0.1-0.2-0.1-0.3l0,0l0.3-0.5
				c0.1-0.1,0.2-0.1,0.3-0.1C36,106.1,36,106.2,36,106.3z"/>
			<path class="st68" d="M35.1,108.1l-0.2,0.6c0,0.1-0.1,0.1-0.2,0.1c-0.1,0-0.1-0.1-0.1-0.2l0,0l0.2-0.6c0-0.1,0.1-0.1,0.2-0.1
				C35.1,107.9,35.1,108,35.1,108.1z"/>
			<path class="st68" d="M34.4,110l-0.1,0.6c0,0.1-0.1,0.2-0.2,0.1c-0.1,0-0.2-0.1-0.1-0.2v0l0.1-0.6c0-0.1,0.1-0.2,0.2-0.1
				C34.4,109.7,34.4,109.9,34.4,110z"/>
			<path class="st68" d="M34,111.9l-0.1,0.6c0,0.1-0.1,0.2-0.2,0.2c-0.1,0-0.2-0.1-0.2-0.2l0,0l0.1-0.6c0-0.1,0.1-0.2,0.2-0.2
				C34,111.7,34,111.8,34,111.9z"/>
			<path class="st68" d="M33.9,113.9l0,0.6c0,0.1-0.1,0.2-0.2,0.2c-0.1,0-0.2-0.1-0.2-0.2v0l0-0.6c0-0.1,0.1-0.2,0.2-0.2
				C33.8,113.7,33.9,113.8,33.9,113.9z"/>
			<path class="st68" d="M34,115.8l0.1,0.6c0,0.1-0.1,0.2-0.2,0.2s-0.2-0.1-0.2-0.2l0,0l-0.1-0.6c0-0.1,0.1-0.2,0.2-0.2
				C33.9,115.7,34,115.7,34,115.8z"/>
			<path class="st68" d="M34.4,117.8l0.2,0.6l0,0c0,0.1,0,0.2-0.1,0.3c-0.1,0-0.2,0-0.3-0.1l0,0l-0.2-0.6c0-0.1,0-0.2,0.1-0.3
				C34.3,117.6,34.4,117.7,34.4,117.8z"/>
			<path class="st68" d="M35.1,119.6l0.2,0.5c0,0.1,0,0.2-0.1,0.3c-0.1,0-0.2,0-0.3-0.1l0,0l-0.2-0.5c0-0.1,0-0.2,0.1-0.3
				C34.9,119.5,35.1,119.5,35.1,119.6z"/>
			<path class="st68" d="M36,121.4l0.3,0.5c0.1,0.1,0,0.2-0.1,0.3c-0.1,0.1-0.2,0-0.3-0.1l0,0l-0.3-0.5c-0.1-0.1,0-0.2,0.1-0.3
				C35.8,121.3,35.9,121.3,36,121.4z"/>
			<path class="st68" d="M37.1,123.1l0.4,0.5c0.1,0.1,0.1,0.2,0,0.3c-0.1,0.1-0.2,0.1-0.3,0l0,0l-0.4-0.5c-0.1-0.1-0.1-0.2,0-0.3
				C36.9,123,37,123,37.1,123.1z"/>
			<path class="st68" d="M38.3,124.6l0.4,0.4c0.1,0.1,0.1,0.2,0,0.3c-0.1,0.1-0.2,0.1-0.3,0l0,0l-0.4-0.4c-0.1-0.1-0.1-0.2,0-0.3
				C38.1,124.5,38.2,124.5,38.3,124.6z"/>
			<path class="st68" d="M39.7,126l0.5,0.4c0.1,0.1,0.1,0.2,0,0.3c-0.1,0.1-0.2,0.1-0.3,0l0,0l-0.5-0.4c-0.1-0.1-0.1-0.2,0-0.3
				C39.5,125.9,39.6,125.9,39.7,126z"/>
			<path class="st68" d="M41.3,127.2l0.5,0.4c0.1,0.1,0.1,0.2,0.1,0.3c-0.1,0.1-0.2,0.1-0.3,0.1l0,0l-0.5-0.4
				c-0.1-0.1-0.1-0.2,0-0.3C41,127.2,41.2,127.2,41.3,127.2z"/>
			<path class="st68" d="M42.9,128.4l0.5,0.3c0.1,0.1,0.1,0.2,0.1,0.3c-0.1,0.1-0.2,0.1-0.3,0.1l0,0l-0.5-0.3
				c-0.1-0.1-0.1-0.2-0.1-0.3C42.7,128.3,42.8,128.3,42.9,128.4z"/>
			<path class="st68" d="M44.6,129.3l0.5,0.3c0.1,0.1,0.2,0.2,0.1,0.3c-0.1,0.1-0.2,0.2-0.3,0.1l0,0l-0.5-0.3
				c-0.1-0.1-0.2-0.2-0.1-0.3C44.4,129.3,44.5,129.3,44.6,129.3z"/>
			<path class="st68" d="M46.5,130.1l0.6,0.2c0.1,0,0.2,0.2,0.1,0.3c0,0.1-0.2,0.2-0.3,0.1l0,0l-0.6-0.2c-0.1,0-0.2-0.2-0.1-0.3
				C46.2,130.1,46.3,130.1,46.5,130.1z"/>
			<path class="st68" d="M48.3,130.8l0.6,0.2c0.1,0,0.2,0.2,0.2,0.3c0,0.1-0.2,0.2-0.3,0.2l0,0l-0.6-0.2c-0.1,0-0.2-0.2-0.2-0.3
				C48.1,130.8,48.2,130.7,48.3,130.8z"/>
			<path class="st68" d="M50.2,131.3l0.6,0.1c0.1,0,0.2,0.2,0.2,0.3c0,0.1-0.2,0.2-0.3,0.2l0,0l-0.6-0.1c-0.1,0-0.2-0.2-0.2-0.3
				C50,131.3,50.1,131.3,50.2,131.3z"/>
			<path class="st68" d="M52.2,131.7l0.6,0.1c0.1,0,0.2,0.1,0.2,0.3c0,0.1-0.1,0.2-0.3,0.2l0,0l-0.6-0.1c-0.1,0-0.2-0.1-0.2-0.3
				C51.9,131.7,52.1,131.6,52.2,131.7z"/>
			<path class="st68" d="M54.2,131.9l0.6,0.1c0.1,0,0.2,0.1,0.2,0.3c0,0.1-0.1,0.2-0.3,0.2l0,0l-0.6-0.1c-0.1,0-0.2-0.1-0.2-0.3
				C53.9,132,54,131.9,54.2,131.9z"/>
			<path class="st68" d="M56.1,132.1l0.6,0c0.1,0,0.3,0.1,0.2,0.3c0,0.1-0.1,0.2-0.3,0.2h0l-0.6,0c-0.1,0-0.2-0.1-0.2-0.3
				C55.9,132.2,56,132.1,56.1,132.1z"/>
			<path class="st68" d="M58.1,132.1l0.6,0c0.1,0,0.3,0.1,0.3,0.3c0,0.1-0.1,0.3-0.3,0.3h0l-0.6,0c-0.1,0-0.3-0.1-0.3-0.3
				C57.9,132.2,58,132.1,58.1,132.1z"/>
			<path class="st68" d="M60.1,132l0.6,0c0.1,0,0.3,0.1,0.3,0.2c0,0.1-0.1,0.3-0.2,0.3l0,0l-0.6,0c-0.1,0-0.3-0.1-0.3-0.2
				C59.9,132.2,60,132,60.1,132z"/>
			<path class="st68" d="M62.1,131.9l0.6-0.1c0.1,0,0.3,0.1,0.3,0.2c0,0.1-0.1,0.3-0.2,0.3l0,0l-0.6,0.1c-0.1,0-0.3-0.1-0.3-0.2
				C61.9,132,62,131.9,62.1,131.9z"/>
			<path class="st68" d="M64.1,131.7l0.6-0.1c0.1,0,0.3,0.1,0.3,0.2c0,0.1-0.1,0.3-0.2,0.3l0,0l-0.6,0.1c-0.1,0-0.3-0.1-0.3-0.2
				C63.9,131.8,64,131.7,64.1,131.7z"/>
			<path class="st68" d="M66.1,131.4l0.6-0.1c0.1,0,0.3,0.1,0.3,0.2c0,0.1-0.1,0.3-0.2,0.3l0,0l-0.6,0.1c-0.1,0-0.3-0.1-0.3-0.2
				C65.8,131.5,65.9,131.4,66.1,131.4z"/>
			<path class="st68" d="M68,131l0.6-0.1c0.1,0,0.3,0.1,0.3,0.2c0,0.1-0.1,0.3-0.2,0.3l0,0l-0.6,0.1c-0.1,0-0.3-0.1-0.3-0.2
				C67.8,131.2,67.9,131,68,131z"/>
			<path class="st68" d="M70,130.5l0.6-0.1c0.1,0,0.3,0.1,0.3,0.2c0,0.1-0.1,0.3-0.2,0.3l0,0l-0.6,0.1c-0.1,0-0.3-0.1-0.3-0.2
				C69.7,130.7,69.8,130.6,70,130.5z"/>
			<path class="st68" d="M71.9,130l0.6-0.2c0.1,0,0.3,0,0.3,0.2c0,0.1,0,0.3-0.2,0.3l0,0l-0.6,0.2c-0.1,0-0.3,0-0.3-0.2
				C71.7,130.2,71.8,130.1,71.9,130z"/>
			<path class="st68" d="M73.8,129.5l0.6-0.2c0.1,0,0.3,0,0.4,0.2c0,0.1,0,0.3-0.2,0.4l0,0L74,130c-0.1,0-0.3,0-0.4-0.2
				C73.6,129.7,73.7,129.5,73.8,129.5z"/>
			<path class="st68" d="M75.7,128.9l0.6-0.2c0.2-0.1,0.3,0,0.4,0.2c0.1,0.2,0,0.3-0.2,0.4l0,0l-0.6,0.2c-0.1,0.1-0.3,0-0.4-0.2
				C75.5,129.1,75.6,128.9,75.7,128.9z"/>
			<path class="st68" d="M77.6,128.2l0.6-0.2c0.2-0.1,0.3,0,0.4,0.2c0.1,0.2,0,0.3-0.2,0.4l0,0l-0.6,0.2c-0.2,0.1-0.3,0-0.4-0.2
				C77.4,128.4,77.4,128.3,77.6,128.2z"/>
			<path class="st68" d="M79.5,127.5l0.6-0.2c0.2-0.1,0.3,0,0.4,0.2c0.1,0.2,0,0.3-0.2,0.4l0,0l-0.6,0.2c-0.2,0.1-0.3,0-0.4-0.2
				C79.2,127.7,79.3,127.5,79.5,127.5z"/>
			<path class="st68" d="M81.3,126.7l0.6-0.2c0.2-0.1,0.3,0,0.4,0.2c0.1,0.2,0,0.3-0.2,0.4l0,0l-0.6,0.2c-0.2,0.1-0.3,0-0.4-0.2
				C81.1,126.9,81.1,126.8,81.3,126.7z"/>
			<path class="st68" d="M83.1,125.9l0.5-0.3c0.2-0.1,0.3,0,0.4,0.1c0.1,0.2,0,0.3-0.1,0.4l-0.5,0.3c-0.2,0.1-0.3,0-0.4-0.1
				C82.9,126.1,83,126,83.1,125.9L83.1,125.9z"/>
			<path class="st68" d="M84.9,125l0.5-0.3c0.1-0.1,0.3,0,0.4,0.1c0.1,0.1,0,0.3-0.1,0.4l-0.5,0.3c-0.1,0.1-0.3,0-0.4-0.1
				C84.7,125.3,84.8,125.1,84.9,125L84.9,125z"/>
			<path class="st68" d="M86.7,124.2l0.5-0.3c0.1-0.1,0.3,0,0.4,0.1c0.1,0.1,0,0.3-0.1,0.4l-0.5,0.3c-0.1,0.1-0.3,0-0.4-0.1
				C86.5,124.4,86.6,124.2,86.7,124.2C86.7,124.2,86.7,124.2,86.7,124.2z"/>
			<path class="st68" d="M88.5,123.2l0.5-0.3c0.1-0.1,0.3,0,0.4,0.1c0.1,0.1,0,0.3-0.1,0.4l-0.5,0.3c-0.1,0.1-0.3,0-0.4-0.1
				C88.3,123.5,88.3,123.3,88.5,123.2C88.5,123.2,88.5,123.2,88.5,123.2z"/>
			<path class="st68" d="M90.2,122.3l0.5-0.3c0.1-0.1,0.3,0,0.4,0.1c0.1,0.1,0,0.3-0.1,0.4l-0.5,0.3c-0.1,0.1-0.3,0-0.4-0.1
				C90.1,122.5,90.1,122.3,90.2,122.3C90.2,122.3,90.2,122.3,90.2,122.3z"/>
			<path class="st68" d="M92,121.3l0.5-0.3c0.1-0.1,0.3,0,0.3,0.1c0.1,0.1,0,0.3-0.1,0.3l-0.5,0.3c-0.1,0.1-0.3,0-0.3-0.1
				C91.8,121.5,91.8,121.4,92,121.3C92,121.3,92,121.3,92,121.3z"/>
			<path class="st68" d="M93.7,120.3l0.5-0.3c0.1-0.1,0.3,0,0.3,0.1c0.1,0.1,0,0.3-0.1,0.3l-0.5,0.3c-0.1,0.1-0.3,0-0.3-0.1
				C93.5,120.5,93.6,120.3,93.7,120.3C93.7,120.3,93.7,120.3,93.7,120.3z"/>
			<path class="st68" d="M95.4,119.2l0.5-0.3c0.1-0.1,0.2,0,0.3,0.1c0.1,0.1,0,0.2-0.1,0.3l-0.5,0.3c-0.1,0.1-0.2,0-0.3-0.1
				C95.3,119.4,95.3,119.3,95.4,119.2C95.4,119.2,95.4,119.2,95.4,119.2z"/>
			<path class="st68" d="M97.1,118.1l0.5-0.3c0.1-0.1,0.2,0,0.3,0.1c0.1,0.1,0,0.2-0.1,0.3l-0.5,0.3c-0.1,0.1-0.2,0-0.3-0.1
				C97,118.3,97,118.2,97.1,118.1C97.1,118.1,97.1,118.1,97.1,118.1z"/>
			<path class="st68" d="M98.8,117l0.5-0.3c0.1-0.1,0.2,0,0.3,0.1c0.1,0.1,0,0.2-0.1,0.3l-0.5,0.3c-0.1,0.1-0.2,0-0.3-0.1
				C98.6,117.2,98.7,117.1,98.8,117C98.7,117,98.8,117,98.8,117z"/>
			<path class="st68" d="M100.4,115.9l0.5-0.3c0.1-0.1,0.2,0,0.3,0c0.1,0.1,0,0.2,0,0.3l-0.5,0.3c-0.1,0.1-0.2,0-0.3,0
				C100.3,116.1,100.3,116,100.4,115.9C100.4,115.9,100.4,115.9,100.4,115.9z"/>
			<path class="st68" d="M102,114.7l0.5-0.3c0.1-0.1,0.2,0,0.2,0c0.1,0.1,0,0.2,0,0.2l-0.5,0.4c-0.1,0.1-0.2,0-0.2,0
				C101.9,114.9,102,114.8,102,114.7C102,114.7,102,114.7,102,114.7z"/>
			<path class="st68" d="M103.7,113.6l0.5-0.4c0.1-0.1,0.2,0,0.2,0c0.1,0.1,0,0.2,0,0.2l-0.5,0.4c-0.1,0.1-0.2,0-0.2,0
				C103.6,113.7,103.6,113.6,103.7,113.6C103.7,113.6,103.7,113.6,103.7,113.6z"/>
			<path class="st68" d="M105.3,112.4l0.5-0.4c0.1,0,0.2,0,0.2,0c0,0.1,0,0.2,0,0.2l-0.5,0.4c-0.1,0.1-0.2,0-0.2,0
				C105.2,112.5,105.2,112.4,105.3,112.4L105.3,112.4z"/>
			<path class="st68" d="M106.9,111.2l0.5-0.4c0.1,0,0.1,0,0.2,0c0,0.1,0,0.1,0,0.2l-0.5,0.4c-0.1,0-0.1,0-0.2,0
				C106.8,111.3,106.8,111.2,106.9,111.2L106.9,111.2z"/>
			<path class="st68" d="M108.5,110l0.5-0.4c0.1,0,0.1,0,0.2,0c0,0.1,0,0.1,0,0.2l-0.5,0.4c-0.1,0-0.1,0-0.2,0
				C108.4,110.1,108.4,110,108.5,110L108.5,110z"/>
			<path class="st68" d="M110,108.7l0.5-0.4c0,0,0.1,0,0.2,0c0,0,0,0.1,0,0.2l-0.5,0.4c0,0-0.1,0-0.2,0
				C110,108.8,110,108.8,110,108.7L110,108.7z"/>
			<path class="st68" d="M111.6,107.5l0.5-0.4c0,0,0.1,0,0.1,0c0,0,0,0.1,0,0.1l-0.5,0.4c0,0-0.1,0-0.1,0
				C111.5,107.6,111.6,107.5,111.6,107.5L111.6,107.5z"/>
			<path class="st68" d="M113.1,106.2l0.5-0.4c0,0,0.1,0,0.1,0c0,0,0,0.1,0,0.1l-0.5,0.4c0,0-0.1,0-0.1,0
				C113.1,106.3,113.1,106.2,113.1,106.2C113.1,106.2,113.1,106.2,113.1,106.2z"/>
			<path class="st68" d="M114.7,104.9l0.5-0.4c0,0,0.1,0,0.1,0c0,0,0,0.1,0,0.1l-0.5,0.4c0,0-0.1,0-0.1,0
				C114.7,105,114.7,104.9,114.7,104.9L114.7,104.9z"/>
			<path class="st68" d="M116.2,103.6l0.5-0.4c0,0,0.1,0,0.1,0c0,0,0,0.1,0,0.1L116.2,103.6C116.3,103.7,116.2,103.7,116.2,103.6
				C116.2,103.7,116.2,103.7,116.2,103.6L116.2,103.6z"/>
			<path class="st68" d="M117.8,102.3l0.5-0.4c0,0,0,0,0.1,0c0,0,0,0,0,0.1L117.8,102.3C117.8,102.4,117.8,102.4,117.8,102.3
				C117.7,102.4,117.7,102.3,117.8,102.3L117.8,102.3z"/>
			<path class="st68" d="M119.3,101l0.5-0.4c0,0,0,0,0,0c0,0,0,0,0,0L119.3,101C119.3,101.1,119.3,101.1,119.3,101
				C119.3,101.1,119.3,101,119.3,101C119.3,101,119.3,101,119.3,101z"/>
		</g>
		<g>
			<path class="st68" d="M118,144.9l-0.5,0.4c-0.1,0-0.2,0-0.2,0c0-0.1,0-0.2,0-0.2l0,0l0.5-0.4c0.1,0,0.1,0,0.2,0
				C118.1,144.7,118.1,144.8,118,144.9z"/>
			<path class="st68" d="M116.3,146l-0.5,0.3c-0.1,0-0.2,0-0.2-0.1c0-0.1,0-0.2,0.1-0.2l0,0l0.5-0.3c0.1,0,0.2,0,0.2,0.1
				C116.4,145.9,116.4,146,116.3,146z"/>
			<path class="st68" d="M114.5,146.9l-0.6,0.2c-0.1,0-0.2,0-0.2-0.1c0-0.1,0-0.2,0.1-0.2l0,0l0.6-0.2c0.1,0,0.2,0,0.2,0.1
				C114.6,146.7,114.6,146.8,114.5,146.9z"/>
			<path class="st68" d="M112.5,147.4l-0.6,0.1c-0.1,0-0.2,0-0.2-0.1c0-0.1,0-0.2,0.1-0.2l0,0l0.6-0.1c0.1,0,0.2,0.1,0.2,0.1
				C112.7,147.3,112.6,147.3,112.5,147.4z"/>
			<path class="st68" d="M110.5,147.5l-0.6,0c-0.1,0-0.2-0.1-0.2-0.2c0-0.1,0.1-0.2,0.2-0.2h0l0.6,0c0.1,0,0.2,0.1,0.2,0.2
				C110.7,147.5,110.6,147.5,110.5,147.5z"/>
			<path class="st68" d="M108.5,147.5l-0.6-0.1c-0.1,0-0.2-0.1-0.2-0.2c0-0.1,0.1-0.2,0.2-0.2l0,0l0.6,0.1c0.1,0,0.2,0.1,0.2,0.2
				C108.7,147.4,108.6,147.5,108.5,147.5z"/>
			<path class="st68" d="M106.5,147.1l-0.6-0.1c-0.1,0-0.2-0.1-0.1-0.2c0-0.1,0.1-0.2,0.2-0.1l0,0l0.6,0.1c0.1,0,0.2,0.1,0.1,0.2
				C106.7,147.1,106.6,147.2,106.5,147.1z"/>
			<path class="st68" d="M104.5,146.6l-0.6-0.2c-0.1,0-0.2-0.2-0.1-0.3c0-0.1,0.2-0.2,0.3-0.1l0,0l0.6,0.2c0.1,0,0.2,0.2,0.1,0.3
				C104.7,146.6,104.6,146.6,104.5,146.6z"/>
			<path class="st68" d="M102.7,145.8l-0.5-0.3c-0.1-0.1-0.1-0.2-0.1-0.3c0.1-0.1,0.2-0.1,0.3-0.1l0,0l0.5,0.3
				c0.1,0.1,0.1,0.2,0.1,0.3C102.9,145.8,102.8,145.9,102.7,145.8z"/>
			<path class="st68" d="M100.9,144.9l-0.5-0.3c-0.1-0.1-0.1-0.2-0.1-0.3c0.1-0.1,0.2-0.1,0.3-0.1l0,0l0.5,0.3
				c0.1,0.1,0.1,0.2,0.1,0.3C101.1,144.9,101,144.9,100.9,144.9z"/>
			<path class="st68" d="M99.2,143.8l-0.5-0.3c-0.1-0.1-0.1-0.2-0.1-0.3c0.1-0.1,0.2-0.1,0.3-0.1l0,0l0.5,0.3
				c0.1,0.1,0.1,0.2,0.1,0.3C99.4,143.8,99.3,143.9,99.2,143.8z"/>
			<path class="st68" d="M97.5,142.6l-0.5-0.4c-0.1-0.1-0.1-0.2,0-0.3c0.1-0.1,0.2-0.1,0.3,0l0,0l0.5,0.4c0.1,0.1,0.1,0.2,0,0.3
				C97.8,142.7,97.6,142.7,97.5,142.6z"/>
			<path class="st68" d="M96,141.3l-0.5-0.4c-0.1-0.1-0.1-0.2,0-0.3c0.1-0.1,0.2-0.1,0.3,0l0,0l0.5,0.4c0.1,0.1,0.1,0.2,0,0.3
				C96.2,141.4,96.1,141.4,96,141.3z"/>
			<path class="st68" d="M94.5,140l-0.4-0.4c-0.1-0.1-0.1-0.3,0-0.4c0.1-0.1,0.3-0.1,0.4,0l0,0l0.4,0.4c0.1,0.1,0.1,0.2,0,0.3
				C94.7,140.1,94.6,140.1,94.5,140z"/>
			<path class="st68" d="M93,138.6l-0.4-0.4c-0.1-0.1-0.1-0.3,0-0.4c0.1-0.1,0.3-0.1,0.4,0l0,0l0.4,0.4c0.1,0.1,0.1,0.3,0,0.4
				C93.3,138.7,93.1,138.7,93,138.6z"/>
			<path class="st68" d="M91.6,137.2l-0.4-0.4c-0.1-0.1-0.1-0.3,0-0.4c0.1-0.1,0.3-0.1,0.4,0l0,0l0.4,0.4c0.1,0.1,0.1,0.3,0,0.4
				C91.8,137.3,91.7,137.3,91.6,137.2z"/>
			<path class="st68" d="M90.1,135.8l-0.4-0.4c-0.1-0.1-0.1-0.3,0-0.4c0.1-0.1,0.3-0.1,0.4,0l0,0l0.4,0.4c0.1,0.1,0.1,0.3,0,0.4
				C90.4,135.9,90.2,135.9,90.1,135.8z"/>
			<path class="st68" d="M88.7,134.4l-0.4-0.4c-0.1-0.1-0.1-0.3,0-0.4c0.1-0.1,0.3-0.1,0.4,0l0,0l0.4,0.4c0.1,0.1,0.1,0.3,0,0.4
				C89,134.5,88.8,134.5,88.7,134.4z"/>
			<path class="st68" d="M87.2,133l-0.4-0.4c-0.1-0.1-0.1-0.3,0-0.4c0.1-0.1,0.3-0.1,0.4,0l0,0l0.4,0.4c0.1,0.1,0.1,0.3,0,0.4
				C87.5,133.1,87.4,133.1,87.2,133z"/>
			<path class="st68" d="M85.8,131.6l-0.4-0.4c-0.1-0.1-0.1-0.3,0-0.4c0.1-0.1,0.3-0.1,0.4,0l0,0l0.4,0.4c0.1,0.1,0.1,0.3,0,0.4
				C86.1,131.7,85.9,131.7,85.8,131.6z"/>
			<path class="st68" d="M84.4,130.2l-0.4-0.4c-0.1-0.1-0.1-0.3,0-0.4c0.1-0.1,0.3-0.1,0.4,0l0.4,0.4c0.1,0.1,0.1,0.3,0,0.4
				C84.7,130.3,84.5,130.3,84.4,130.2L84.4,130.2z"/>
			<path class="st68" d="M83,128.8l-0.4-0.4c-0.1-0.1-0.1-0.3,0-0.4c0.1-0.1,0.3-0.1,0.4,0l0.4,0.4c0.1,0.1,0.1,0.3,0,0.4
				C83.3,128.9,83.1,128.9,83,128.8C83,128.8,83,128.8,83,128.8z"/>
			<path class="st68" d="M81.6,127.3l-0.4-0.4c-0.1-0.1-0.1-0.2,0-0.3c0.1-0.1,0.2-0.1,0.3,0L82,127c0.1,0.1,0.1,0.2,0,0.3
				C81.9,127.4,81.7,127.4,81.6,127.3C81.6,127.3,81.6,127.3,81.6,127.3z"/>
			<path class="st68" d="M80.2,125.9l-0.4-0.4c-0.1-0.1-0.1-0.2,0-0.3c0.1-0.1,0.2-0.1,0.3,0l0.4,0.4c0.1,0.1,0.1,0.2,0,0.3
				C80.4,126,80.3,126,80.2,125.9C80.2,125.9,80.2,125.9,80.2,125.9z"/>
			<path class="st68" d="M78.8,124.4l-0.4-0.4c-0.1-0.1-0.1-0.2,0-0.2c0.1-0.1,0.2-0.1,0.2,0l0.4,0.4c0.1,0.1,0.1,0.2,0,0.3
				C79,124.5,78.9,124.5,78.8,124.4C78.8,124.4,78.8,124.4,78.8,124.4z"/>
			<path class="st68" d="M77.4,123l-0.4-0.4c-0.1-0.1-0.1-0.1,0-0.2c0.1-0.1,0.1-0.1,0.2,0l0.4,0.4c0.1,0.1,0.1,0.2,0,0.2
				C77.6,123.1,77.5,123.1,77.4,123C77.4,123,77.4,123,77.4,123z"/>
			<path class="st68" d="M76.1,121.5l-0.4-0.4c0,0,0-0.1,0-0.2c0,0,0.1,0,0.2,0l0.4,0.4c0,0,0,0.1,0,0.2
				C76.2,121.6,76.1,121.6,76.1,121.5C76.1,121.5,76.1,121.5,76.1,121.5z"/>
			<path class="st68" d="M74.7,120.1l-0.4-0.4c0,0,0-0.1,0-0.1c0,0,0.1,0,0.1,0l0.4,0.4c0,0,0,0.1,0,0.1
				C74.8,120.1,74.7,120.1,74.7,120.1C74.7,120.1,74.7,120.1,74.7,120.1z"/>
			<path class="st68" d="M73.3,118.6l-0.4-0.4c0,0,0-0.1,0-0.1c0,0,0.1,0,0.1,0L73.3,118.6C73.4,118.6,73.4,118.6,73.3,118.6
				C73.4,118.7,73.3,118.7,73.3,118.6C73.3,118.6,73.3,118.6,73.3,118.6z"/>
			<path class="st68" d="M71.9,117.2L71.9,117.2C71.9,117.1,71.9,117.1,71.9,117.2C71.9,117.1,71.9,117.1,71.9,117.2L71.9,117.2
				C72,117.2,72,117.2,71.9,117.2C72,117.2,71.9,117.2,71.9,117.2L71.9,117.2z"/>
		</g>
	</g>
</g>
</svg>
